<?xml version="1.0" encoding="UTF-8" standalone="no"?>
<!-- Created with Inkscape (http://www.inkscape.org/) -->

<svg
   xmlns:dc="http://purl.org/dc/elements/1.1/"
   xmlns:cc="http://creativecommons.org/ns#"
   xmlns:rdf="http://www.w3.org/1999/02/22-rdf-syntax-ns#"
   xmlns:svg="http://www.w3.org/2000/svg"
   xmlns="http://www.w3.org/2000/svg"
   xmlns:sodipodi="http://sodipodi.sourceforge.net/DTD/sodipodi-0.dtd"
   xmlns:inkscape="http://www.inkscape.org/namespaces/inkscape"
   id="svg2440"
   sodipodi:version="0.32"
   inkscape:version="0.92.3 (2405546, 2018-03-11)"
   width="480"
   height="417"
   version="1.0"
   sodipodi:docname="pesthoernchen.svg"
   inkscape:output_extension="org.inkscape.output.svg.inkscape"
   inkscape:export-filename="/home/niklas/dev/freitagsfoo-infobeamer/pesthoernchen.png"
   inkscape:export-xdpi="96"
   inkscape:export-ydpi="96">
  <metadata
     id="metadata2445">
    <rdf:RDF>
      <cc:Work
         rdf:about="">
        <dc:format>image/svg+xml</dc:format>
        <dc:type
           rdf:resource="http://purl.org/dc/dcmitype/StillImage" />
        <dc:title />
      </cc:Work>
    </rdf:RDF>
  </metadata>
  <defs
     id="defs2443">
    <inkscape:perspective
       sodipodi:type="inkscape:persp3d"
       inkscape:vp_x="0 : 526.18109 : 1"
       inkscape:vp_y="0 : 1000 : 0"
       inkscape:vp_z="744.09448 : 526.18109 : 1"
       inkscape:persp3d-origin="372.04724 : 350.78739 : 1"
       id="perspective2447" />
  </defs>
  <sodipodi:namedview
     inkscape:window-height="1051"
     inkscape:window-width="1920"
     inkscape:pageshadow="2"
     inkscape:pageopacity="0.0"
     guidetolerance="10.0"
     gridtolerance="10.0"
     objecttolerance="10.0"
     borderopacity="1.0"
     bordercolor="#666666"
     pagecolor="#ffffff"
     id="base"
     showgrid="false"
     inkscape:zoom="1.117506"
     inkscape:cx="16.895242"
     inkscape:cy="210.2897"
     inkscape:window-x="0"
     inkscape:window-y="0"
     inkscape:current-layer="svg2440"
     inkscape:window-maximized="1" />
  <path
     style="fill:#11e07b;fill-opacity:1"
     d="M 158.44431,384.5118 C 153.3498,379.41108 151.4893,374.83391 151.47982,367.37782 C 151.4672,357.45895 156.16271,349.9449 165.61544,344.7571 C 170.28296,342.1955 171.97713,341.82207 178.74868,341.86228 C 187.04324,341.91153 188.36169,340.7741 182.41387,338.70032 C 180.52207,338.04072 179.06369,337.06636 179.17302,336.53508 C 179.28235,336.00379 183.80722,328.86246 189.22828,320.66545 C 194.64935,312.46844 200.06803,304.14075 201.2698,302.15947 L 203.45483,298.55714 L 225.06101,297.83928 C 236.94441,297.44446 246.86867,297.3229 247.11492,297.56915 C 247.60641,298.06063 237.69988,314.14937 222.83442,337.00199 C 217.77313,344.78269 216.26929,348.12454 218.43022,346.789 C 219.93522,345.85887 226.19929,348.87953 227.39375,351.1114 C 227.98802,352.2218 228.47424,356.24218 228.47424,360.04558 C 228.47424,365.93579 228.06661,367.56436 225.72424,371.03238 C 222.36641,376.00385 219.05544,378.67106 212.77173,381.46653 C 206.32902,384.33273 200.77048,385.26103 197.29836,384.05064 C 193.83454,382.84315 192.47424,380.54747 192.47424,375.90933 C 192.47424,371.44107 191.61959,369.2618 189.86725,369.2618 C 188.95992,369.2618 188.47424,370.40451 188.47424,372.53929 C 188.47424,380.28964 177.42006,389.2618 167.87122,389.2618 C 163.61737,389.2618 162.75405,388.82679 158.44431,384.5118 z M 331.23828,388.31104 C 326.7436,386.88382 321.62202,383.30276 320.92224,381.09796 C 320.4931,379.74585 321.01485,378.02186 322.4342,376.10209 C 323.62617,374.48987 324.45743,372.17875 324.28144,370.96629 C 323.99564,368.99721 323.44665,369.31414 319.14036,373.93423 C 313.33153,380.16635 308.4528,382.29398 298.35644,382.99816 C 291.65138,383.4658 290.07213,383.22432 285.17579,380.9827 C 278.99118,378.1513 273.94564,372.29149 272.90193,366.72806 C 271.82308,360.97727 274.8827,353.07021 280.61286,346.8005 C 283.43184,343.7161 285.46829,340.92252 285.13832,340.59254 C 284.80835,340.26257 283.09467,340.5906 281.33015,341.32148 C 278.60147,342.45174 277.9944,342.43449 277.26877,341.20609 C 276.79954,340.41173 271.55808,331.4368 265.6211,321.2618 C 259.68411,311.0868 254.20183,301.76977 253.43826,300.55728 C 252.67469,299.34479 252.25792,298.16978 252.51209,297.94615 C 252.76627,297.72251 263.59493,297.25292 276.57577,296.9026 L 300.1773,296.26567 L 313.07577,315.3864 C 320.16993,325.9028 326.42424,334.6393 326.97424,334.80084 C 338.48203,338.18084 347.57018,345.64867 352.5935,355.85248 C 355.43326,361.62085 355.69583,362.91247 355.22391,368.79166 C 354.58092,376.80185 351.4636,382.01165 345.0725,385.75708 C 340.04416,388.70389 335.25806,389.58746 331.23828,388.31104 z M 71.974245,384.44775 C 64.713085,381.85229 59.688765,378.34094 53.186005,371.31718 C 46.600495,364.20404 44.057675,359.70067 41.923945,351.37192 C 38.685225,338.72993 44.443505,327.48377 59.224245,317.58374 C 62.111745,315.64971 64.474245,313.64696 64.474245,313.13318 C 64.474245,311.13372 61.366125,311.1655 58.076495,313.19861 L 54.627985,315.32991 L 52.082055,311.99203 C 48.084395,306.75082 46.474245,301.84931 46.474245,294.92104 C 46.474245,281.74908 54.920045,270.93474 69.640595,265.2579 C 83.918645,259.7517 95.545012,260.92356 104.24524,268.74582 C 112.04034,275.75429 115.25958,285.85669 112.99026,296.18885 L 112.25451,299.53869 L 146.01059,298.79803 C 177.06308,298.11669 179.71629,298.18865 179.13764,299.69659 C 178.79167,300.59816 174.75817,307.05666 170.17431,314.04881 C 165.59045,321.04095 159.17021,331.12734 155.90713,336.46299 L 149.97424,346.16418 L 136.97424,346.33575 C 129.82424,346.43011 120.88347,346.43677 117.10587,346.35056 C 110.26365,346.1944 110.22113,346.17585 105.93875,341.4778 C 100.36797,335.3663 99.114422,337.47365 103.43491,345.68703 C 108.71589,355.72633 107.19943,365.78935 98.874582,375.94873 C 91.657795,384.75587 81.667065,387.91239 71.974245,384.44775 z M 415.47424,374.3871 C 406.91607,372.49392 397.87626,365.78943 394.51231,358.84045 C 392.53538,354.75665 391.77176,345.68157 392.7051,337.36301 C 392.85313,336.04367 392.47336,334.78921 391.86117,334.57532 C 390.64566,334.15063 388.4734,338.6228 388.21244,342.08719 C 388.05176,344.22031 387.75028,344.2618 372.41091,344.2618 L 356.77319,344.2618 L 353.74992,339.5118 C 352.08712,336.8993 344.8262,326.0993 337.61453,315.5118 L 324.50241,296.2618 L 337.73832,296.13289 C 345.01808,296.06199 353.89924,295.91545 357.47424,295.80725 C 361.04924,295.69904 370.20988,295.53205 377.83123,295.43616 C 390.19907,295.28054 391.62086,295.08626 391.06142,293.62839 C 390.02316,290.92273 392.44318,280.2663 395.44738,274.31501 C 398.35097,268.56303 405.94112,260.62215 411.06704,257.9736 C 422.99152,251.81224 438.60245,253.44937 449.97424,262.05383 C 455.77409,266.44228 461.14794,275.99915 461.89954,283.2618 C 462.81442,292.1021 458.696,303.95494 450.9658,314.72923 C 445.18628,322.78469 445.16441,325.22875 450.91706,320.17786 C 452.913,318.4254 455.11974,317.29552 455.93526,317.60847 C 458.43589,318.56805 464.33195,328.52832 465.49736,333.7618 C 468.09604,345.43173 462.22393,359.31226 451.56276,366.70046 C 442.62811,372.89217 425.35128,376.57204 415.47424,374.3871 z M 227.47424,289.70155 C 224.56332,288.39184 223.35272,288.33022 220.28154,289.33544 C 215.66908,290.84514 200.36385,289.35095 195.47898,286.91405 C 192.36556,285.36087 192.01961,285.37966 188.96456,287.26778 C 187.19005,288.36449 184.44129,289.2574 182.85621,289.25203 C 179.39103,289.24029 169.88142,284.98335 169.27828,283.17393 C 168.94799,282.18306 168.29302,282.27533 166.43909,283.57387 C 163.13844,285.88574 160.26222,285.69479 154.51457,282.78224 C 145.54197,278.23547 142.22213,273.67387 141.03577,264.2618 L 140.34252,258.7618 L 130.65838,252.2648 C 120.23467,245.27164 111.89499,238.45169 98.474242,225.94558 C 71.240975,200.56829 53.824875,172.96768 39.761335,132.89879 C 35.207005,119.92291 29.474245,98.181463 29.474245,93.885063 C 29.474245,92.606413 29.044315,90.255603 28.518845,88.661026 C 26.478735,82.470168 21.976565,28.092816 23.387315,26.682072 C 23.618465,26.450924 36.019925,26.261803 50.946125,26.261803 L 78.084675,26.261803 L 77.118635,34.011803 C 75.934435,43.511998 77.472085,60.711464 80.985235,77.261803 C 84.157615,92.206783 93.454882,121.2618 95.064732,121.2618 C 96.283152,121.2618 97.173402,117.07381 97.403032,110.2618 C 97.467922,108.3368 98.837012,101.8118 100.44545,95.761803 C 112.17991,51.623732 145.35489,19.368145 190.47424,8.2280106 C 202.73855,5.1999066 226.86816,4.4367846 238.84936,6.6981006 C 253.37859,9.4403286 264.15048,13.979124 279.47424,23.815603 C 303.4746,39.221683 321.10509,57.543904 333.57111,80.034941 C 339.68721,91.069533 346.03656,106.89477 347.00751,113.5241 C 347.39114,116.14336 348.08332,118.5202 348.5457,118.80596 C 349.59897,119.45692 352.8355,114.65534 352.12181,113.50058 C 351.83316,113.03353 352.00849,110.87624 352.51143,108.7066 C 356.86256,89.936273 357.9532,80.380355 357.92642,61.261803 C 357.90552,46.346163 357.47702,39.802579 356.10374,33.428062 C 355.1163,28.844505 354.4582,24.94534 354.64131,24.763252 C 354.82442,24.581164 378.93674,24.111748 408.22424,23.720106 C 454.75798,23.097842 461.47424,23.193648 461.47424,24.479706 C 461.47424,29.728343 459.2683,59.149466 458.37899,65.761803 C 455.41676,87.786952 452.40847,100.63569 445.26763,121.7618 C 430.82094,164.50218 400.97186,211.82383 372.74448,236.73738 C 357.4878,250.20295 335.43116,263.53413 317.27126,270.26574 L 308.56829,273.49181 L 307.47358,278.76497 C 306.03515,285.69387 303.82563,287.55894 296.19073,288.28891 C 291.1276,288.77299 289.30964,288.5006 285.8232,286.73554 L 281.59542,284.59517 L 279.00953,287.17848 C 276.66731,289.51837 275.68201,289.7618 268.5534,289.7618 C 262.32038,289.7618 260.2612,289.37983 258.65475,287.92564 C 256.67995,286.138 256.5429,286.15122 253.4695,288.42564 C 250.75055,290.43774 248.9714,290.79748 240.64345,291.01905 C 233.54165,291.208 230.0449,290.85817 227.47424,289.70155 z M 248.08471,283.49649 C 250.36365,281.98874 252.47309,276.20629 252.43862,271.56146 C 252.39115,265.16619 250.01734,255.5194 247.92113,253.20311 C 244.1369,249.02158 233.47553,248.14068 229.55814,251.68587 C 228.03147,253.06749 227.79058,255.26589 227.74692,268.21563 C 227.69809,282.6971 227.76167,283.16458 229.8354,283.57063 C 233.61258,284.31024 246.93656,284.2561 248.08471,283.49649 z M 219.6018,281.60941 C 221.10041,279.80512 221.67863,264.64965 220.58713,255.78326 C 220.05539,251.46392 219.59978,250.67338 217.14618,249.81277 C 214.75823,248.97518 213.3137,249.34157 207.86404,252.16709 C 204.31431,254.00754 200.89251,256.46926 200.26005,257.63758 C 199.01642,259.93489 196.61229,272.06695 196.52685,276.47662 C 196.46195,279.82581 198.54783,281.0515 206.22614,282.17606 C 215.36345,283.51429 218.1165,283.39766 219.6018,281.60941 z M 274.47424,281.2618 C 276.17578,279.56026 276.47424,277.92847 276.47424,270.3269 C 276.47424,265.4127 276.05637,260.29293 275.54565,258.94962 C 273.93452,254.71204 263.30417,252.57473 260.04567,255.83323 C 258.84086,257.03803 258.47424,259.58922 258.47424,266.76813 C 258.47424,277.36552 259.44667,280.91435 262.7097,282.22526 C 266.78704,283.86331 272.32637,283.40967 274.47424,281.2618 z M 188.84339,278.97983 C 190.34205,276.96483 191.02198,274.25984 191.30969,269.16812 C 191.66183,262.93607 191.45007,261.86497 189.44352,259.7291 C 184.72596,254.70749 175.8952,254.1635 172.91559,258.71096 C 170.9678,261.68367 169.97169,272.97283 171.34627,276.49645 C 172.65752,279.85774 177.63299,282.21341 182.87427,281.95448 C 185.84928,281.8075 187.26505,281.10197 188.84339,278.97983 z M 298.62641,281.27545 C 302.38382,281.2444 303.74592,268.35025 300.88024,259.93994 C 300.00354,257.36696 298.88499,255.2618 298.39459,255.2618 C 295.57851,255.2618 288.10061,257.98458 285.73373,259.87174 C 283.15863,261.92493 282.97424,262.57689 282.97424,269.62857 C 282.97424,275.29675 283.38393,277.59554 284.61363,278.82718 C 286.52233,280.73888 292.09045,282.28011 294.97424,281.69494 C 296.07424,281.47173 297.71772,281.28296 298.62641,281.27545 z M 164.14376,274.2618 C 165.74388,268.10498 165.74637,261.01622 164.14918,258.83193 C 163.16568,257.48691 161.03154,256.89154 155.87002,256.52223 C 147.71622,255.93883 145.95304,257.16183 146.11371,263.28952 C 146.27362,269.3878 149.34826,274.44482 154.47424,277.04048 C 160.84759,280.26778 162.7229,279.72888 164.14376,274.2618 z M 226.47424,221.75261 C 226.91464,215.59513 227.21265,214.7618 228.97424,214.7618 C 230.36625,214.7618 231.05934,215.52178 231.25419,217.2618 C 231.74488,221.64364 232.49061,224.26226 233.24329,224.24649 C 235.32412,224.2029 236.83475,222.01853 237.48399,218.11443 C 237.88209,215.72048 239.66462,208.82443 241.44516,202.78987 C 243.95917,194.26947 244.57718,190.58277 244.2111,186.28987 C 243.41792,176.98877 240.52989,157.31985 238.36512,146.47591 C 237.23576,140.81868 235.92695,132.08794 235.45665,127.07427 C 234.63562,118.32168 233.22238,115.11366 231.11567,117.22037 C 229.86106,118.47498 228.34978,140.90566 228.68737,153.2618 C 228.92514,161.9648 228.72258,163.7618 227.50377,163.7618 C 224.86294,163.7618 223.5074,159.01297 223.36477,149.2618 C 223.16069,135.30917 222.1475,125.97584 220.78835,125.52833 C 219.00905,124.94249 217.48613,131.76412 217.47982,140.34826 C 217.47649,144.87367 216.26705,153.75041 214.48236,162.34826 C 209.29528,187.33729 210.5955,200.2283 220.75692,224.55761 C 223.74138,231.70327 225.83605,230.67559 226.47424,221.75261 z M 117.47424,221.68987 C 117.47424,220.27531 116.30648,217.12531 114.87922,214.68987 C 113.45196,212.25443 112.60706,210.2618 113.00166,210.2618 C 113.39627,210.2618 113.23862,209.68282 112.65132,208.97517 C 110.57985,206.4792 109.31537,190.09075 109.97295,174.2618 C 110.5796,159.65882 110.47508,158.29882 108.16696,150.7618 C 105.1572,140.93361 101.94019,135.2618 99.375472,135.2618 C 96.845512,135.2618 96.934032,136.00871 100.72424,146.64311 L 103.97424,155.7618 L 103.76909,175.2618 C 103.50383,200.47343 104.90224,208.42652 111.48029,219.11721 C 114.93393,224.73009 117.47424,225.82042 117.47424,221.68987 z M 336.5602,219.44834 C 341.41896,214.02115 345.94573,199.67378 345.35979,191.5585 C 345.20681,189.43966 345.40231,187.1872 345.79425,186.55303 C 346.18619,185.91886 346.07816,185.13504 345.55418,184.81121 C 345.03021,184.48737 344.57132,183.44378 344.53442,182.49211 C 344.3419,177.52618 343.44967,168.39817 342.89909,165.7618 C 340.40653,153.82637 340.87359,137.04375 343.76183,134.7618 C 344.92495,133.84285 345.05677,133.04248 344.62655,129.5118 C 344.38093,127.49603 341.07094,128.07668 339.62697,130.38884 C 335.86657,136.41021 334.08256,155.24181 336.3233,165.2618 C 338.28558,174.03664 339.71146,189.85874 339.16206,196.7618 C 338.28646,207.76362 336.07121,213.68782 331.44174,217.40816 C 326.73245,221.19265 326.33247,223.2618 330.3102,223.2618 C 332.33218,223.2618 334.12604,222.16727 336.5602,219.44834 z M 197.91953,179.8896 C 199.3093,178.97899 201.10971,177.22158 201.92045,175.98424 C 203.87137,173.00676 206.19609,163.647 207.43991,153.7618 C 207.99355,149.3618 209.10133,140.5868 209.90163,134.2618 C 211.60679,120.7856 211.03111,117.13283 205.64638,107.2618 C 199.32368,95.671333 197.90423,94.258683 192.60555,94.283443 C 186.69399,94.311073 171.3548,97.686413 166.05236,100.1264 C 163.8094,101.15853 158.37424,103.23741 153.97424,104.74613 C 149.57424,106.25486 142.74178,109.01933 138.791,110.88941 C 132.11092,114.05139 131.41046,114.69135 128.791,120.02568 C 126.10972,125.48592 125.98602,126.35194 126.21915,138.03174 C 126.51862,153.03508 127.50007,155.6831 134.91974,161.50654 C 140.30367,165.7322 148.68143,169.03524 158.47424,170.7932 C 160.39924,171.13877 165.47163,173.42233 169.74622,175.86777 C 182.21829,183.00292 191.20918,184.28639 197.91953,179.8896 z M 278.47424,174.54085 C 281.49924,173.61613 285.99924,171.42891 288.47424,169.68036 C 293.66432,166.01365 300.8074,162.2726 302.6844,162.23806 C 305.6527,162.18344 315.58611,157.30403 319.86212,153.80016 C 325.34992,149.30332 327.21817,144.19736 328.1088,131.2618 C 328.69397,122.76286 328.69352,122.76081 324.51979,114.7618 C 316.95341,100.26075 308.83863,94.338193 293.57569,92.177313 C 272.77397,89.23228 258.31988,94.253213 249.47666,107.49603 C 247.28982,110.77085 245.02379,115.22093 244.44104,117.38509 C 242.90032,123.1069 244.23828,132.49253 247.98732,142.2618 C 249.78139,146.9368 252.9205,155.2618 254.96311,160.7618 C 259.23059,172.25252 261.22475,176.00023 263.41865,176.65258 C 265.75384,177.34695 272.29695,176.4292 278.47424,174.54085 z"
     id="path2451"
     sodipodi:nodetypes="csssssscccssssssssssssccsssssssssssssscccssssccsssscccssscccsscccssssccssssccccccssssssssssssccssssssscccssssscccsssssssssssssssssssscccscccssssccsssssccssssssccsssssccsssssccssssssccssssccssssssssssssssssccsssssscccsccssssssssssssccsssssssssssssccsssssssssssc"
     inkscape:export-xdpi="96"
     inkscape:export-ydpi="96" />
  <path
     style="fill:#ffffff;fill-opacity:1;stroke:#000000;stroke-width:0.89484978;stroke-opacity:1"
     d="m 227.2653,289.32495 c -2.76659,-1.05964 -4.247,-1.1126 -7.8504,-0.28084 -5.18224,1.19621 -17.68992,-0.11876 -23.74191,-2.49605 -3.48723,-1.36981 -3.84074,-1.34886 -7.33767,0.43515 -5.01515,2.55854 -6.96637,2.38091 -14.33383,-1.30488 -5.08476,-2.5438 -6.70659,-2.99091 -8.11504,-2.23712 -4.41572,2.36322 -11.38167,0.0901 -17.97324,-5.86497 -3.72217,-3.36276 -5.82351,-8.01946 -6.72541,-14.90391 -0.54115,-4.13083 -0.76896,-4.40269 -7.43689,-8.87513 C 106.1915,235.31202 81.867841,211.21953 65.713659,186.40656 49.914918,162.13956 34.728284,123.00679 29.767282,93.780258 26.713191,75.787836 23.51713,43.937365 23.51713,31.49413 v -4.827606 h 26.873734 26.873735 l -0.585921,9.17221 c -1.253839,19.628068 4.953865,52.594322 14.792615,78.556746 2.597266,6.85365 3.389554,7.94996 4.502558,6.23027 0.477806,-0.73825 1.077866,-3.15434 1.333467,-5.3691 C 99.752441,94.069971 107.10719,74.043227 118.6541,57.130002 125.40421,47.24286 139.56105,33.4532 150.19488,26.407293 171.98231,11.971071 192.03793,6.1013587 219.61409,6.0902542 c 25.54454,-0.010286 41.44126,5.3639718 65.6466,22.1933678 23.1261,16.079026 40.04942,35.417255 51.34127,58.667529 4.89314,10.075103 9.39978,22.277329 10.37146,28.081789 0.38343,2.29051 1.11903,3.80311 1.84952,3.80311 1.82685,0 3.99846,-3.62811 4.00237,-6.68677 0.002,-1.49003 1.08547,-7.94402 2.40794,-14.342198 2.25825,-10.925609 2.40576,-13.102343 2.42566,-35.793992 0.0161,-18.396398 -0.30565,-25.675482 -1.34863,-30.508828 l -1.3698,-6.347884 24.14186,-0.587202 c 13.27803,-0.32296 37.20705,-0.587201 53.17563,-0.587201 h 29.03376 l -0.59803,9.17221 c -2.53063,38.813289 -5.69422,57.159236 -14.54355,84.339595 -8.80879,27.0558 -21.03233,51.61532 -38.45525,77.26424 -10.88802,16.02865 -16.21273,22.50101 -28.84065,35.05677 -16.98397,16.88694 -37.63597,30.41937 -59.5944,39.04985 -10.76149,4.22967 -11.03888,4.40768 -11.63189,7.46497 -1.16735,6.01829 -2.93283,8.95827 -6.19902,10.32298 -4.51397,1.88606 -11.52698,1.65991 -15.77796,-0.50877 l -3.56524,-1.81886 -3.26467,2.48999 c -2.98199,2.27437 -3.90684,2.48545 -10.68061,2.43765 -5.65568,-0.0399 -7.81291,-0.41163 -9.08848,-1.56599 -2.14036,-1.93701 -2.48824,-1.91013 -5.80015,0.44816 -2.36482,1.68389 -4.15909,1.99964 -12.66604,2.22894 -7.08623,0.19101 -10.88269,-0.10505 -13.32049,-1.03876 z m 21.94958,-6.50768 c 3.86139,-4.42079 4.34192,-16.73283 1.00012,-25.62486 -2.09696,-5.57971 -5.70868,-7.70829 -13.0792,-7.70829 -4.32787,0 -5.5684,0.36838 -7.39647,2.19645 -2.14895,2.14895 -2.19645,2.50601 -2.19645,16.51026 0,12.68815 0.17785,14.41739 1.56599,15.2259 0.86129,0.50167 5.42973,0.92436 10.15208,0.93932 7.08204,0.0225 8.8257,-0.24711 9.95393,-1.53878 z m -30.12039,-0.599 c 1.59358,-1.16526 1.73702,-2.447 1.73702,-15.52233 0,-16.12365 -0.36441,-17.21182 -5.76388,-17.21182 -2.25401,0 -5.12187,1.097 -9.00311,3.44384 -6.53718,3.95276 -7.36016,5.55063 -9.11696,17.70125 -1.32318,9.15164 -0.8152,9.93497 7.50516,11.57324 7.721,1.52026 12.57715,1.5255 14.64177,0.0158 z m 55.46867,-0.92631 c 2.00374,-2.00373 2.19646,-2.89684 2.19646,-10.17892 0,-11.64564 -0.5007,-13.33782 -4.55912,-15.40826 -4.02193,-2.05184 -9.59349,-2.27165 -12.04828,-0.47533 -1.55065,1.1347 -1.73632,2.40683 -1.73044,11.85676 0.009,14.17874 1.26724,16.21512 10.10115,16.34548 2.93564,0.0433 4.36273,-0.46222 6.04023,-2.13973 z m -86.41657,-0.9148 c 2.03478,-1.84146 3.6023,-7.89367 3.6023,-13.90856 0,-3.8498 -0.41018,-5.00443 -2.53135,-7.12561 -5.22416,-5.22416 -14.42099,-5.10691 -16.97234,0.21637 -1.64124,3.42439 -2.36774,13.97472 -1.17301,17.03474 2.01922,5.17176 12.88074,7.57827 17.0744,3.78306 z m 109.76084,1.32155 c 2.99726,0 4.81464,-4.5125 4.76366,-11.82802 -0.0456,-6.55316 -2.45118,-14.44384 -4.52085,-14.82948 -2.08946,-0.38933 -10.89721,3.10019 -13.17033,5.21791 -1.73003,1.61177 -1.95634,2.74786 -1.95634,9.82077 0,7.56508 0.12235,8.07833 2.25954,9.47867 2.58884,1.69628 7.46789,3.01577 9.22298,2.49427 0.65546,-0.19476 2.18607,-0.35412 3.40134,-0.35412 z m -133.95654,-5.81652 c 0.77482,-1.60363 1.31778,-5.50447 1.3485,-9.68802 0.0611,-8.32879 -0.57757,-9.08503 -8.44455,-9.99809 -3.66119,-0.42492 -6.00529,-0.24469 -7.76946,0.59737 -2.19498,1.04769 -2.56313,1.78574 -2.80636,5.62601 -0.39404,6.22123 1.90894,10.878 6.9704,14.09462 5.25443,3.33925 8.88639,3.12479 10.70147,-0.63189 z m 61.97484,-49.28685 c 0.35571,-1.43794 0.88976,-4.52718 1.18678,-6.86498 0.36824,-2.89839 0.95852,-4.25053 1.85556,-4.25053 1.45038,0 1.75193,0.65559 2.57246,5.59281 0.6047,3.63852 2.1023,4.27425 4.21603,1.7897 1.83555,-2.15756 8.78847,-29.47622 8.78847,-34.53067 0,-5.07074 -2.03245,-20.20546 -4.96436,-36.96738 -1.2181,-6.96393 -2.81589,-17.21965 -3.55065,-22.7905 -1.32032,-10.01061 -2.91049,-13.88263 -4.88884,-11.90428 -1.39675,1.39676 -2.67098,16.50357 -2.68794,31.86748 -0.009,8.57054 -0.37145,14.26106 -0.92912,14.60571 -1.87939,1.16154 -3.3474,-5.66099 -3.94968,-18.356 -0.67672,-14.26407 -1.37421,-18.93217 -2.90495,-19.44242 -1.64122,-0.54708 -2.92929,4.93837 -3.8387,16.34783 -0.46912,5.88544 -1.87495,16.31757 -3.12408,23.18252 -4.29392,23.59857 -2.56487,38.86637 6.72074,59.34534 2.77468,6.11943 4.39855,6.82097 5.49828,2.37537 z m -108.44937,-4.88131 c 0,-1.49287 -1.01349,-4.71433 -2.25221,-7.1588 -1.2387,-2.44448 -1.99476,-4.4445 -1.68012,-4.4445 0.31464,0 0.12825,-0.53477 -0.4142,-1.18838 -1.82251,-2.196 -2.7767,-13.44505 -2.79454,-32.94536 -0.0156,-17.0902 -0.23852,-20.09039 -1.89456,-25.50322 -3.35964,-10.98117 -8.08349,-17.58991 -10.684762,-14.94818 -0.411613,0.41802 0.58328,4.85528 2.210873,9.86057 2.953049,9.08143 2.960289,9.14817 3.447889,31.76717 0.3511,16.2868 0.8865,24.24873 1.90222,28.28761 3.16047,12.56731 12.15941,24.6107 12.15941,16.27309 z M 335.305,220.78796 c 5.81931,-5.10942 10.19297,-17.58118 10.33437,-29.46908 0.0439,-3.69125 -0.56213,-11.14088 -1.34674,-16.55472 -0.78461,-5.41384 -1.64664,-15.55243 -1.91561,-22.53022 -0.40711,-10.56146 -0.24778,-13.17048 0.95107,-15.57364 2.93001,-5.87334 0.88016,-11.07586 -2.98557,-7.57742 -4.85089,4.38999 -6.33409,24.23688 -3.29574,44.10081 1.21684,7.95543 1.56392,13.94733 1.26994,21.92382 -0.47171,12.79894 -1.53134,15.96054 -7.48109,22.3213 -2.23111,2.38524 -3.81072,4.73456 -3.51025,5.22073 1.07158,1.73386 4.90254,0.84013 7.97962,-1.86158 z M 196.77666,180.91779 c 4.21361,-1.99949 6.36218,-5.36417 8.32396,-13.03541 2.26209,-8.84556 5.6228,-34.36348 5.72112,-43.44055 0.0767,-7.0814 -0.0855,-7.69597 -4.14764,-15.71789 -2.3251,-4.59159 -5.38307,-9.73163 -6.79549,-11.422305 -2.40513,-2.878942 -2.90057,-3.070035 -7.80971,-3.012198 -8.66458,0.10208 -18.99122,2.761998 -35.86053,9.236883 -23.41885,8.98876 -24.04974,9.37249 -28.11327,17.09943 -1.94857,3.70527 -2.1114,5.02721 -2.03915,16.55472 0.0659,10.5107 0.36936,13.18379 1.88476,16.60134 3.06784,6.91863 12.6064,12.95619 25.66369,16.24417 3.99969,1.00717 10.89631,3.64797 15.32582,5.86843 4.42951,2.22047 9.46304,4.55757 11.18562,5.19355 4.47299,1.65142 13.00576,1.56427 16.66082,-0.17017 z m 78.65128,-5.29914 c 2.91956,-0.76045 7.53434,-2.62933 10.25507,-4.15307 13.69257,-7.66854 15.79495,-8.74277 17.14734,-8.76157 2.77887,-0.0387 15.62372,-7.11391 18.94551,-10.4357 4.13941,-4.13941 5.82001,-9.49609 6.57005,-20.94107 l 0.56406,-8.6072 -3.8908,-7.53481 c -5.10515,-9.88647 -12.69838,-17.680724 -19.81531,-20.339904 -9.65969,-3.609253 -23.54301,-4.763194 -33.09816,-2.751022 -11.18398,2.355181 -20.8211,10.077546 -26.10968,20.922066 -2.36334,4.84614 -2.53835,5.87619 -2.12147,12.48586 0.27625,4.37983 1.37197,9.85624 2.79499,13.96944 4.96622,14.35462 12.95166,34.10615 14.46503,35.77841 1.96517,2.17147 6.88456,2.29833 14.29337,0.36857 z"
     id="path816"
     inkscape:connector-curvature="0" />
  <path
     style="fill:#ffffff;fill-opacity:1;stroke:#000000;stroke-width:0.89484978;stroke-opacity:1"
     d="m 70.708313,383.39354 c -6.290715,-2.65481 -8.781134,-4.25248 -13.708512,-8.79438 -6.215541,-5.72928 -11.107499,-12.75673 -13.397599,-19.24604 -5.025845,-14.24143 -0.991701,-24.72 13.87344,-36.03587 3.962518,-3.01641 7.204578,-5.8816 7.204578,-6.3671 0,-1.90775 -3.157891,-1.95267 -6.552593,-0.0932 -4.108223,2.2503 -4.177975,2.20363 -8.451546,-5.65501 -2.121872,-3.90189 -2.427259,-5.44725 -2.387291,-12.08047 0.05594,-9.28476 2.215044,-14.46405 8.659016,-20.77145 7.743933,-7.5798 22.909442,-13.08632 32.893358,-11.94342 10.082809,1.15423 18.864096,7.93512 22.409626,17.30468 1.61395,4.26507 1.86237,6.3709 1.4886,12.61858 l -0.44864,7.49916 33.0177,-0.65854 c 24.84321,-0.4955 33.01769,-0.40136 33.01769,0.38023 0,0.57133 -5.56473,9.77486 -12.36606,20.4523 -6.80134,10.67744 -13.2771,20.92358 -14.39058,22.76921 l -2.02452,3.35569 h -18.31587 c -19.95786,0 -20.93985,-0.2015 -25.77693,-5.28921 -2.63172,-2.76809 -4.97797,-3.61453 -4.97797,-1.79587 0,0.53272 1.20805,3.721 2.68455,7.08508 3.69816,8.42591 3.68885,14.7065 -0.0328,22.15423 -7.158475,14.32537 -20.045585,20.33268 -32.417625,15.11141 z"
     id="path818"
     inkscape:connector-curvature="0" />
  <path
     style="fill:#ffffff;fill-opacity:1;stroke:#000000;stroke-width:0.89484978;stroke-opacity:1"
     d="m 328.21348,386.7499 c -6.3831,-3.48629 -8.11583,-6.92273 -5.34064,-10.59186 1.37739,-1.82106 1.82246,-6.76405 0.60904,-6.76405 -0.38763,0 -2.66605,1.99121 -5.06316,4.42492 -2.39711,2.4337 -6.2666,5.24581 -8.59886,6.24912 -5.54299,2.38453 -15.7122,3.32899 -20.72333,1.92467 -5.76179,-1.61469 -11.78061,-6.41024 -14.12588,-11.25492 -3.54879,-7.33083 -1.54697,-14.73305 6.65369,-24.60354 2.24608,-2.70343 4.08378,-5.26385 4.08378,-5.68982 0,-0.71519 -0.77092,-0.60837 -5.85983,0.812 -1.59905,0.44631 -3.3979,-2.16616 -14.09388,-20.4686 -6.74349,-11.53911 -12.26089,-21.38551 -12.26089,-21.88088 0,-0.89176 38.73451,-2.52336 44.24931,-1.8639 2.23365,0.2671 3.66446,1.82684 9.31909,10.15889 18.22089,26.84832 18.31802,26.96316 25.68228,30.36566 8.12942,3.75602 15.8203,11.11268 19.41475,18.57104 5.16684,10.721 2.18921,23.37856 -6.7889,28.85879 -5.3275,3.2519 -12.98007,4.03358 -17.15657,1.75248 z"
     id="path820"
     inkscape:connector-curvature="0" />
  <path
     style="fill:#ffffff;fill-opacity:1;stroke:#000000;stroke-width:0.89484978;stroke-opacity:1"
     d="m 413.9276,373.52434 c -9.0677,-2.97684 -18.08156,-10.79577 -19.86974,-17.23569 -0.52678,-1.89717 -0.96003,-7.60641 -0.96278,-12.6872 -0.004,-8.31008 -0.16226,-9.20877 -1.57098,-8.9485 -0.96552,0.17838 -2.07284,1.87118 -2.88786,4.41477 l -1.32187,4.12545 -9.86375,0.56844 c -5.42506,0.31265 -12.15933,0.57028 -14.96503,0.57251 l -5.10129,0.004 -15.72929,-23.38991 c -8.65112,-12.86446 -15.5361,-23.58312 -15.29996,-23.81925 0.23613,-0.23614 12.83135,-0.59711 27.98938,-0.80217 15.15802,-0.20505 29.67412,-0.58913 32.258,-0.85351 4.69038,-0.47991 4.69796,-0.48578 4.69796,-3.64281 0,-4.09138 2.35234,-13.13135 4.52536,-17.39082 2.85881,-5.60373 11.25314,-13.92408 16.79213,-16.64414 4.57983,-2.24904 6.00665,-2.49495 14.4765,-2.49495 8.68441,0 9.84663,0.21354 15.34779,2.8199 13.33797,6.3193 20.66968,19.33981 18.54793,32.93956 -0.89408,5.73075 -5.48081,15.89066 -11.52445,25.52744 -3.95155,6.30086 -3.48176,7.77725 1.31141,4.12133 1.67387,-1.27673 3.6538,-2.32132 4.39985,-2.32132 1.81283,0 5.31295,4.71786 8.23454,11.09944 2.06876,4.51876 2.32934,6.05216 1.97046,11.59529 -0.68563,10.59016 -6.31902,20.3 -14.95607,25.77861 -9.31527,5.9088 -28.26089,9.36769 -36.49824,6.66345 z"
     id="path822"
     inkscape:connector-curvature="0" />
  <path
     style="fill:#ffffff;fill-opacity:1;stroke:#000000;stroke-width:0.89484978;stroke-opacity:1"
     d="m 162.62813,387.41365 c -3.47883,-2.12146 -7.46942,-6.85248 -9.16108,-10.86086 -2.18573,-5.17911 -1.6759,-14.44736 1.10771,-20.13685 3.76722,-7.69992 13.00262,-13.85936 20.80747,-13.87729 5.65262,-0.013 10.99756,-0.92909 10.99756,-1.88493 0,-0.42116 -1.40939,-1.35463 -3.13197,-2.07438 -1.72259,-0.71974 -3.13198,-1.67882 -3.13198,-2.13128 0,-0.45246 3.07425,-5.60721 6.83166,-11.455 3.75742,-5.84778 9.07001,-14.11317 11.80576,-18.36754 l 4.97409,-7.7352 20.89466,-0.6529 c 11.49207,-0.35909 21.12222,-0.42534 21.40036,-0.14721 0.5929,0.59291 -2.68446,6.11429 -16.29732,27.45614 -5.49375,8.61293 -10.65861,16.96859 -11.47748,18.56813 -1.47599,2.88316 -1.47048,2.90827 0.63892,2.90827 1.17028,0 3.48654,0.91567 5.14726,2.03483 2.37116,1.59792 3.17296,2.89484 3.73425,6.04023 1.06742,5.98162 -0.0282,11.9024 -3.04554,16.4577 -4.24135,6.40327 -15.13621,12.17736 -23.32904,12.36397 -5.33103,0.12143 -7.69534,-1.84377 -8.38886,-6.97276 -0.91305,-6.75253 -1.2375,-7.55273 -3.06242,-7.55273 -1.31224,0 -1.77265,0.60402 -1.77265,2.3256 0,6.16341 -6.92895,13.74173 -14.66464,16.03898 -5.79398,1.72063 -7.58257,1.66391 -10.87672,-0.34492 z"
     id="path824"
     inkscape:connector-curvature="0" />
</svg>
